<?xml version="1.0" encoding="utf-8"?>
<!-- Generator: Adobe Illustrator 18.1.1, SVG Export Plug-In . SVG Version: 6.00 Build 0)  -->
<svg version="1.1" id="Layer_1" xmlns="http://www.w3.org/2000/svg" xmlns:xlink="http://www.w3.org/1999/xlink" x="0px" y="0px"
	 viewBox="0 0 500 491" enable-background="new 0 0 500 491" xml:space="preserve">
<g>
	<polygon fill="#0072BA" points="250,42.5 70.5,42.5 102.8,407.7 250,448.5 397.2,407.7 429.5,42.5 	"/>
	<polygon fill="#24A8DF" points="250,418.2 250.6,418.3 370.6,385.1 398.3,71.6 250,71.6 	"/>
	<g>
		<polygon fill="#ECEDED" points="197.6,209 201.1,255 250,255 250,209 		"/>
		<polygon fill="#ECEDED" points="200.1,311.7 196.7,276 151.6,276 158.2,346.6 250,372.3 250,325.8 		"/>
		<polygon fill="#ECEDED" points="137.6,119 141.7,164 250,164 250,119 		"/>
	</g>
	<polygon fill="#FFFFFF" points="361.3,119 250,119 250,164 313.8,164 309.8,209 250,209 250,255 305.1,255 299.8,312.6 250,325.8 
		250,372.3 341.4,346.6 	"/>
</g>
</svg>
