<?xml version="1.0" encoding="utf-8"?>
<!-- Generator: Adobe Illustrator 18.1.1, SVG Export Plug-In . SVG Version: 6.00 Build 0)  -->
<svg version="1.1" id="Layer_1" xmlns="http://www.w3.org/2000/svg" xmlns:xlink="http://www.w3.org/1999/xlink" x="0px" y="0px"
	 viewBox="0 0 500 491" enable-background="new 0 0 500 491" xml:space="preserve">
<g>
	<polygon fill="#E7582B" points="250,44.8 72.5,44.8 104.4,405.9 250,446.2 395.6,405.9 427.5,44.8 	"/>
	<polygon fill="none" points="191.5,209.7 250,209.7 250,164.5 187.6,164.5 	"/>
	<g>
		<polygon fill="#EEEEEE" points="191.5,209.7 187.6,164.5 250,164.5 250,120.1 138.8,120.1 151.1,254.1 250,254.1 250,209.7 		"/>
		<polygon fill="#EEEEEE" points="200.7,311.2 197.3,276 152.7,276 159.2,345.6 250,370.9 250,325 		"/>
	</g>
	<polygon fill="#F3712E" points="250,417 250.2,417 370.2,382.5 397.8,68 250,68 	"/>
	<g>
		<polygon fill="#FFFFFF" points="352.4,209.7 250,209.7 250,254.1 304.5,254.1 299.2,311.4 250,325 250,370.9 340.4,345.6 		"/>
		<polygon fill="#FFFFFF" points="356.8,164.5 360.1,120.1 250,120.1 250,164.5 		"/>
	</g>
</g>
</svg>
