<?xml version="1.0" encoding="utf-8"?>
<!-- Generator: Adobe Illustrator 18.1.1, SVG Export Plug-In . SVG Version: 6.00 Build 0)  -->
<svg version="1.1" id="Layer_1" xmlns="http://www.w3.org/2000/svg" xmlns:xlink="http://www.w3.org/1999/xlink" x="0px" y="0px"
	 viewBox="0 0 500 491" enable-background="new 0 0 500 491" xml:space="preserve">
<g>
	<path fill="#F2E059" d="M66,62v367h368c0-123,0-244,0-367H66z"/>
	<path fill="#393A37" d="M404.7,344.8c-1-9.4-4.3-17.8-10.6-25c-6.5-7.4-14.7-12.6-23.4-16.8c-8.3-4-16.8-7.4-25.1-11.4
		c-3.7-1.7-7.2-3.8-10.5-6.2c-5.1-3.9-6.5-9.4-5.3-15.5c1.1-5.8,4.9-9.4,10.5-10.8c8.2-2.1,15.8-0.6,21.8,5.7
		c2.3,2.4,4.1,5.2,6.3,8.1c8.8-5.6,17.6-11.3,26.6-17.1c-5.1-9-11.6-16.7-20.8-21.4c-14.2-7.2-29.2-7.9-44.4-4.1
		c-20.8,5.1-33.9,21.8-34.3,43c-0.2,13,3.3,24.7,12.5,34.4c5.8,6.1,12.7,10.6,20.2,14.2c8.7,4.1,17.7,7.8,26.4,11.9
		c3.6,1.7,7.2,3.9,10.4,6.4c5.3,4.3,7,11.2,4.8,17.4c-1.8,4.9-5.5,7.9-10.1,9.7c-10.9,4.3-28.1,3.2-39-9c-2.7-3-5-6.3-7.7-9.6
		c-9.2,5.3-18.5,10.7-27.8,16.1c6.1,11.9,14.9,20.8,26.5,27c10.9,5.8,22.6,8.1,34.8,8.3c10.6,0.2,21-1.3,30.9-5.5
		c11.9-5.2,20.7-13.5,25.2-25.9C405.2,360.9,405.6,352.9,404.7,344.8z"/>
	<path fill="#393A37" d="M266.3,232c0-0.6-0.1,0-0.1-2c-11.5,0-23.2,0-35.2,0c0,2,0,2.3,0,3.2c0,37.8,0.4,75.6,0.4,113.4
		c0,2.9,0.3,5.8-0.2,8.7c-0.9,5.5-3.2,10.3-8.9,12.4c-5.1,1.9-10.3,2-15.4,0.4c-5.3-1.7-8.7-5.6-11.7-10.1c-1.4-2.1-2.7-4.3-4.1-6.6
		c-9.3,5.7-18.6,11.3-27.9,16.9c0.1,0.3,0.1,0.5,0.2,0.7c5.8,11.9,14.4,21,26.7,26.2c13.8,5.8,28,6.1,42.3,2.6
		c13.1-3.2,23-10.8,28.7-23.2c4.1-8.7,5.2-18.1,5.2-27.7C266.3,308.8,266.3,270.3,266.3,232z"/>
</g>
</svg>
