<?xml version="1.0" encoding="utf-8"?>
<!-- Generator: Adobe Illustrator 18.1.1, SVG Export Plug-In . SVG Version: 6.00 Build 0)  -->
<svg version="1.1" id="Layer_1" xmlns="http://www.w3.org/2000/svg" xmlns:xlink="http://www.w3.org/1999/xlink" x="0px" y="0px"
	 viewBox="0 0 500 491" enable-background="new 0 0 500 491" xml:space="preserve">
<g>
	<path fill="#04D7FF" d="M249.6,89.1c3-2.7,5.8-5.5,8.8-8.1c6.6-5.9,13.4-11.6,20.7-16.8c7.6-5.5,15.6-10.7,24-15.1
		c11.7-6,23.5-10.7,36.7-11.9c9.3-0.9,18.2,0.4,26.4,5.1c5.3,3,9.6,7.2,13.1,12.3c6.8,9.6,10,20.6,11.9,32.1
		c2.5,16.1,2.1,32.3,0.3,48.5c-1.1,10.3-3.1,20.6-5.4,30.7c-0.1,0.4-0.2,1-0.3,1.4c3.4,1.1,6.6,2,9.9,3.1
		c18.1,5.8,35.6,13.2,51.6,23.4c8.2,5.2,15.9,11.2,22.4,18.5c5.6,6.3,10.4,13.3,12.9,21.5c3,9.9,1.8,19.6-2.6,28.9
		c-4.2,8.9-10.6,16.1-17.7,22.6c-8.3,7.3-17.4,13.5-27.1,18.7c-15.3,8.4-31.5,14.6-48.2,19.7l-1,0.3c0.8,3.9,1.7,7.6,2.6,11.3
		c4,19.4,6.5,39.1,5.1,58.9c-0.8,11.4-2.9,22.8-7.8,33.3c-3.3,7.1-7.6,13.3-13.8,18c-6.1,4.8-13.3,7-21.1,7.8
		c-9.1,0.8-17.6-0.7-26.2-3.2c-13.2-3.9-25.2-10.2-36.7-17.6c-12.9-8.2-24.6-17.8-35.7-28.2c-0.2-0.3-0.6-0.5-0.9-0.9
		c-2.1,1.8-4.2,3.9-6.3,5.8c-6.6,5.9-13.3,11.5-20.5,16.8c-8.2,5.9-16.7,11.5-25.8,16c-12.1,6.1-24.9,10.8-38.4,11.9
		c-9.2,0.7-18.2-0.5-26.6-5.1c-7.3-4.2-12.5-10.2-16.6-17.3c-4.5-7.9-7-16.6-8.4-25.4c-2.5-14.8-2.3-29.7-0.7-44.6
		c1.3-11.7,3.4-23.2,6.1-34.8c0.1-0.4,0.2-1,0.3-1.4c-1.1-0.3-2.2-0.8-3.5-1.1c-17.7-5.2-34.8-12.2-50.8-21.5
		c-10.3-6-19.6-12.9-27.8-21.5c-5-5.1-9.4-11-12.4-17.6c-5.9-12.7-5.6-25.2,0.9-37.6c4.3-8.1,10.3-15,17.2-20.9
		c8.5-7.4,18.1-13.5,28.1-18.7c14.8-7.7,30.4-13.6,46.4-18.4c0.2,0,0.3-0.2,0.5-0.2c-0.5-2.5-1.2-4.8-1.8-7.3
		c-3.6-16.6-5.9-33.7-5.8-50.9c0.1-12.7,1.4-25.3,5.5-37.5c3-8.6,7.2-16.7,14-23.4c7.7-7.5,17-11,27.6-11.2c9-0.3,17.7,1.5,26.1,4.3
		c14.5,4.8,27.4,12.4,39.7,21.2c10.9,7.7,21,16.3,30.4,25.4C249.1,88.8,249.4,89,249.6,89.1L249.6,89.1z M184.2,283.2
		c0.1-0.1,0.2,0,0.3-0.2c2.5,4.3,5,8.9,7.7,13.2c4.8,7.7,9.8,15.3,14.8,23c0.6,0.8,1.3,0.9,2.1,1c27.5,1.6,55.1,1.5,82.5-0.5
		c1-0.2,1.7-0.5,2.2-1.3c15-22.9,28.7-46.7,40.8-71.5c0.5-0.9,0.6-1.6-0.1-2.7s-1.2-2.3-1.8-3.5c-4.4-8.4-8.5-16.7-13.1-24.9
		c-8.3-14.9-17.3-29.4-26.9-43.3c-0.3-0.3-1-0.7-1.5-0.7c-27.7-1.9-55.4-1.9-83.1,0.2c-0.9,0-1.5,0.4-1.9,1.1
		c-9.4,14-18.3,28.4-26.3,43.1c-5.1,9.7-10.1,19.4-14.9,29.1c-0.2,0.4-0.3,1.2-0.1,1.7c1.1,2.5,2.4,5,3.6,7.3
		C173.7,264.1,178.9,273.7,184.2,283.2L184.2,283.2z M235.5,103.5c-0.2-0.3-0.4-0.6-0.8-0.8c-8.7-8.4-18-16.3-27.8-23.4
		C196.1,71.8,185,65.1,172.4,61c-6.2-2.1-12.4-3.4-18.9-3.4c-7.8,0.1-13.8,3.4-18.1,10c-2.2,3.6-4,7.2-5.3,11.3
		c-3.3,10.3-4.5,21-4.6,31.7c-0.2,17,2.3,33.8,6.4,50.4l0.6,2.1c0.4-0.1,0.5-0.1,0.8-0.1c20.2-4.6,40.9-7.8,61.6-9.8
		c0.8-0.1,1.1-0.4,1.6-0.9c9-12.7,18.4-25.1,28.7-36.8C228.5,111.5,232,107.5,235.5,103.5z M118.6,187.6c-0.2,0-0.3,0-0.5,0.1
		c-14.7,4.3-29,9.6-42.4,16.7c-8.9,4.6-17.2,10-24.7,16.5c-4.9,4.2-9.3,9.1-12.4,14.9c-3.2,5.9-3.9,12.1-1.2,18.5
		c2.2,5.3,5.5,9.6,9.4,13.8c8.7,9.1,19.2,15.9,30.2,21.9c12.9,6.8,26.5,12,40.4,16.2c0.6,0.2,1.4,0.4,2,0.6l0.3-0.5
		c6-19.8,13.5-38.9,22-57.6c0.6-1.3,0.5-2.2,0-3.4c-1-2-2-4.1-2.9-6.2c-2.7-6.3-5.5-12.5-8.2-18.8c-3.2-7.9-6.1-16.1-9.1-24.1
		C120.3,193.1,119.5,190.3,118.6,187.6L118.6,187.6z M133.6,330.5c-0.1,0.4-0.1,0.8-0.1,1.1c-2.7,11.4-4.8,23-5.9,34.7
		c-1.1,11.1-1.1,22.2,0.3,33.3c1.1,7.8,2.9,15.5,6.7,22.5c2.5,4.7,5.9,8.6,11.1,10.5c5,1.7,10,1.9,15.1,1.2
		c9.9-1.2,18.9-4.9,27.9-9.1c8.7-4.2,16.7-9.5,24.4-15.2c8.1-6,15.7-12.4,22.9-19.4c0.6-0.5,0.6-0.9,0.1-1.5
		c-4.8-5.2-9.5-10.4-14-15.9c-4.4-5.2-8.4-10.4-12.6-15.8c-4.1-5.4-8-10.9-12-16.2c-0.6-0.8-1.4-1.3-2.5-1.4
		c-16.1-1.3-32.1-3.2-48.1-6.1C142.6,332.3,138.2,331.6,133.6,330.5L133.6,330.5z M366.3,162.3c0.1-0.4,0.2-1,0.3-1.4
		c1.1-5.3,2.3-10.6,3.2-16c2.6-15,4-30.1,2.8-45.4c-0.7-10.1-2.5-20-7.1-29.2c-2.5-5-5.8-9.4-11.3-11.8c-4.2-1.9-8.6-1.9-13-1.5
		c-10.3,1-19.6,4.8-28.8,9.5s-17.5,10.3-25.8,16.6c-7.9,6-15.2,12.5-22.5,19.3c-0.6,0.5-0.5,0.9,0,1.5c3.5,3.9,7,7.6,10.3,11.6
		c5.5,6.8,11,13.4,16.5,20.3c3.9,4.9,7.6,10,11.3,15.1c0.7,0.9,1.4,1.3,2.6,1.5c17.1,1.6,34.2,4,51.1,7.5
		C359.4,160.9,362.8,161.5,366.3,162.3L366.3,162.3z M380.4,186.7c-0.3,0.7-0.4,1-0.5,1.5c-3,8.7-5.8,17.5-9.1,26.1
		c-4,10.3-8.5,20.3-12.8,30.4c-0.2,0.4-0.3,1.3-0.1,1.5c3.3,7.8,6.9,15.4,9.9,23.3c3.5,8.4,6.3,17.1,9.5,25.5
		c1.1,3.2,2.1,6.4,3.1,9.7c0.3,0,0.5-0.1,1-0.2c13.3-4.1,26.3-8.9,38.6-15.2c9.9-5,19.2-10.7,27.5-17.7c5.2-4.4,10-9.2,13.3-15.5
		c2.8-4.9,4.3-10.1,2.8-15.6c-1.5-5.6-4.6-10.2-8.4-14.3c-6.4-7.3-14.3-13-22.7-17.9c-13.3-7.9-27.4-13.6-42.1-18.6
		C387.1,188.7,383.7,187.6,380.4,186.7L380.4,186.7z M264.9,389.2c0.2,0.3,0.5,0.4,0.8,0.6c11.1,10.5,23.1,20,36.2,28
		c8.8,5.4,18,10.1,28,13c6.3,2,12.8,3.1,19.5,2.5c4.3-0.5,8.1-1.7,11.3-4.7c4.3-3.8,6.6-8.8,8.5-14.1c3.6-10.4,4.5-21,4.6-31.7
		c-0.1-16.6-2.5-32.9-6.2-49c-0.3-1.6-0.8-3.1-1.1-4.7c-0.3,0-0.7,0-1,0.2c-19.7,4.4-39.6,7.4-59.9,9.3c-1,0.2-1.5,0.4-1.9,1.2
		c-8.6,12.6-17.6,24.7-27.3,36.4C272.5,380.6,268.7,384.7,264.9,389.2L264.9,389.2z M250.8,374.9c4.6-4.2,26.2-31.1,27.6-34.3
		c-18.5,1-37.1,0.8-55.8,0.3C231.5,352.7,240.7,364.2,250.8,374.9z M153.6,223.2c8.6-16.7,17.7-32.7,27.7-48.4
		c-14.7,1.8-29,4.3-43.4,7.7C142.4,196.3,147.8,209.8,153.6,223.2z M139,311.2c14.1,3,28.4,5.2,42.7,6.8
		c-9.3-15.9-18.4-31.8-27.7-47.7C148.3,283.6,143.4,297.1,139,311.2L139,311.2z M346,221.7c2.3-4,13.7-34.8,14.7-40.1
		c-14-3.1-28.1-5.6-42.2-7.3C327.7,190.3,336.9,206.1,346,221.7L346,221.7z M319.1,317.1c14-1.8,28-4,42-7.2
		c-4.4-13.8-9.3-27.2-14.8-40.2C337,285.6,328,301.4,319.1,317.1z M249.7,117.9c-9.8,10.6-18.8,21.7-27.5,33.2
		c18.4-0.8,36.6-0.9,55.3-0.2C268.5,139.3,259.4,128.5,249.7,117.9L249.7,117.9z"/>
	<path fill="#04D7FF" d="M271.4,281.9c-20.1,11.6-45.6,4.7-57.4-15.4c-11.5-19.9-4.6-45.6,15.2-57.1c20.1-11.6,45.6-4.7,57.3,15.3
		C298.1,244.8,291.2,270.4,271.4,281.9z"/>
</g>
</svg>
